<?xml version="1.0" encoding="UTF-8"?> <svg xmlns="http://www.w3.org/2000/svg" viewBox="0 0 455.61 111.7"><defs><style>.cls-1{fill:#fff;}</style></defs><title>Logo Tecnosmart White</title><g id="Capa_2" data-name="Capa 2"><g id="Layer_2" data-name="Layer 2"><polygon class="cls-1" points="5.05 56.52 29.93 70.92 29.93 76.1 36.02 79.61 14.39 92.1 5.03 86.69 5.05 56.52"></polygon><polygon class="cls-1" points="91.7 55.21 66.68 40.76 66.68 35.58 60.72 32.09 82.31 19.61 91.7 25.02 91.7 55.21"></polygon><polygon class="cls-1" points="52.29 36.95 42.02 42.88 66.7 57.13 66.7 57.13 66.7 66.43 18.33 94.36 48.37 111.7 96.74 83.78 96.74 62.61 52.29 36.95"></polygon><polygon class="cls-1" points="30.04 45.27 78.41 17.34 48.37 0 0 27.93 0 49.09 44.45 74.75 54.72 68.81 30.04 54.56 30.04 45.27"></polygon><path class="cls-1" d="M120.44,45.65H109.81V38.57h28.93v7.08H128.12V73.48h-7.68Z"></path><path class="cls-1" d="M142.64,38.57H169V45.4h-18.7v7.08h16.46v6.84H150.27v7.33h18.95v6.83H142.64Z"></path><path class="cls-1" d="M172.52,56.12V56A17.74,17.74,0,0,1,190.72,38c6.59,0,10.53,2.19,13.77,5.38L199.6,49c-2.69-2.44-5.43-3.94-8.93-3.94-5.88,0-10.12,4.89-10.12,10.87V56c0,6,4.14,11,10.12,11,4,0,6.44-1.6,9.18-4.09l4.89,4.94a17.85,17.85,0,0,1-14.32,6.23A17.62,17.62,0,0,1,172.52,56.12Z"></path><path class="cls-1" d="M208.88,38.57H216l16.36,21.49V38.57h7.58V73.48h-6.54l-16.9-22.19V73.48h-7.59Z"></path><path class="cls-1" d="M244.75,56.12V56c0-9.92,7.83-18.05,18.61-18.05s18.5,8,18.5,18V56c0,9.93-7.83,18.06-18.6,18.06S244.75,66.05,244.75,56.12Zm29.08,0V56c0-6-4.39-11-10.57-11s-10.48,4.89-10.48,10.87V56c0,6,4.39,11,10.58,11S273.83,62.11,273.83,56.12Z"></path><path class="cls-1" d="M284.06,68.39,288.6,63C291.74,65.55,295,67.2,299,67.2c3.15,0,5-1.25,5-3.29v-.1c0-2-1.19-3-7-4.44-7-1.8-11.57-3.75-11.57-10.68v-.1c0-6.33,5.08-10.52,12.22-10.52a20.17,20.17,0,0,1,13,4.44l-4,5.78c-3.1-2.14-6.14-3.44-9.08-3.44s-4.49,1.35-4.49,3V48c0,2.3,1.5,3,7.53,4.59,7.08,1.85,11.07,4.39,11.07,10.48v.1c0,6.93-5.28,10.82-12.82,10.82A22.18,22.18,0,0,1,284.06,68.39Z"></path><path class="cls-1" d="M316.39,38.57h8.28l9.17,14.76L343,38.57h8.28V73.48h-7.63V50.69L333.84,65.6h-.2l-9.72-14.76V73.48h-7.53Z"></path><path class="cls-1" d="M369.66,38.32h7.08l15,35.16h-8l-3.19-7.83H365.72l-3.19,7.83H354.7Zm8.08,20.55L373.1,47.54l-4.64,11.33Z"></path><path class="cls-1" d="M395.1,38.57h16c4.44,0,7.88,1.24,10.17,3.54a10.93,10.93,0,0,1,3,8v.1A10.84,10.84,0,0,1,416.75,61l8.53,12.47h-9l-7.48-11.17h-6V73.48H395.1Zm15.47,17c3.74,0,5.88-2,5.88-4.94v-.1c0-3.29-2.29-5-6-5h-7.63v10Z"></path><path class="cls-1" d="M437.31,45.65H426.68V38.57h28.93v7.08H445V73.48h-7.68Z"></path></g></g></svg> 